<svg xmlns="http://www.w3.org/2000/svg" viewBox="0 0 181.84 202.67"><defs><style>.cls-1{fill:#232120;}</style></defs><g id="Layer_2" data-name="Layer 2"><g id="Layer_1-2" data-name="Layer 1"><path class="cls-1" d="M129.84,61.61H54.89v75h75Zm-50.55,4h25L84.69,105.43h-5.4ZM97.46,88.49A23.89,23.89,0,0,0,108,105.43H89.11ZM58.85,65.57H74.92L58.85,100.42Zm16.48,8.57v31.29H60.9ZM58.85,105.4l0,0h0Zm31.53,27.2H58.85V109.39H90.38Zm35.5,0H94.34V109.39h31.54Zm0-27.17h-4.73a20,20,0,0,1-19.8-17.76h24.53Zm0-21.72H101.31a20,20,0,0,1,19.84-18.14h4.73Z"/><path class="cls-1" d="M69.89,125.89h1.86a.49.49,0,0,0,.48-.32l.52-1.38h3.73l.52,1.38a.49.49,0,0,0,.48.32h1.86a.3.3,0,0,0,.2-.1.26.26,0,0,0,.1-.2.39.39,0,0,0,0-.13l-3.32-9.15a.57.57,0,0,0-.57-.41H73.5a.57.57,0,0,0-.57.41l-3.32,9.15a.45.45,0,0,0,0,.13.28.28,0,0,0,.09.2A.3.3,0,0,0,69.89,125.89Zm4.73-7.48,1.27,3.64H73.35Z"/><path class="cls-1" d="M113.34,116.91a4.87,4.87,0,0,0-3.28-1h-3.75a.36.36,0,0,0-.26.11.4.4,0,0,0-.1.26v9.26a.36.36,0,0,0,.11.25.34.34,0,0,0,.25.11h3.82c2.86,0,4.34-1.31,4.44-3.91,0-.27,0-.63,0-1.09s0-.82,0-1.09A3.76,3.76,0,0,0,113.34,116.91Zm-1.5,5a2,2,0,0,1-.45,1.37,1.85,1.85,0,0,1-1.33.43h-1.42V118H110a1.92,1.92,0,0,1,1.36.44,1.79,1.79,0,0,1,.49,1.34c0,.27,0,.62,0,1.06S111.86,121.67,111.84,122Z"/><path class="cls-1" d="M70.6,162.89a.76.76,0,0,0-.77-.53H67.5a.76.76,0,0,0-.77.53l-5.09,13.69,0,.2a.44.44,0,0,0,.13.31.42.42,0,0,0,.32.13h1.89a.62.62,0,0,0,.62-.4l1-2.57h6.29l1,2.57a.6.6,0,0,0,.61.4h1.89a.43.43,0,0,0,.31-.13.41.41,0,0,0,.14-.31l0-.2Zm-4.33,8.9,2.4-6.55,2.4,6.55Z"/><path class="cls-1" d="M88.14,171.13a4.16,4.16,0,0,0,2.08-1.52A4.43,4.43,0,0,0,91,167a4.19,4.19,0,0,0-1.47-3.44,6.27,6.27,0,0,0-4.09-1.21H79.9a.47.47,0,0,0-.37.15.52.52,0,0,0-.14.38v13.82a.51.51,0,0,0,.51.51h1.95a.5.5,0,0,0,.53-.51v-5.09h2.91l2.72,5a1.4,1.4,0,0,0,.34.41.8.8,0,0,0,.53.16h2a.42.42,0,0,0,.31-.13.38.38,0,0,0,.14-.31.57.57,0,0,0-.06-.24Zm-.89-2.5a2.82,2.82,0,0,1-1.92.56h-3v-4.45h3a2.77,2.77,0,0,1,1.92.58,2.16,2.16,0,0,1,.63,1.67A2.07,2.07,0,0,1,87.25,168.63Z"/><path class="cls-1" d="M105.42,162.36H94.57a.48.48,0,0,0-.37.15.52.52,0,0,0-.14.38v1.59a.5.5,0,0,0,.15.38.49.49,0,0,0,.36.15H98.5v11.7a.51.51,0,0,0,.51.51h2a.48.48,0,0,0,.37-.15.52.52,0,0,0,.14-.36V165h3.9a.53.53,0,0,0,.39-.15.54.54,0,0,0,.14-.38v-1.59a.52.52,0,0,0-.14-.38A.53.53,0,0,0,105.42,162.36Z"/><path class="cls-1" d="M120.21,175.36A3.84,3.84,0,0,0,121,173a3.73,3.73,0,0,0-.53-2.06,4,4,0,0,0-1.65-1.33,14,14,0,0,0-3-1,19.46,19.46,0,0,1-2.11-.65,2.84,2.84,0,0,1-1.06-.66,1.44,1.44,0,0,1-.34-1,1.46,1.46,0,0,1,.67-1.3,3.36,3.36,0,0,1,1.84-.44,3.29,3.29,0,0,1,1.78.45,1.67,1.67,0,0,1,.83,1.14.63.63,0,0,0,.64.38h2a.39.39,0,0,0,.32-.14.41.41,0,0,0,.13-.3,3.4,3.4,0,0,0-.71-1.84,5,5,0,0,0-2-1.54,7,7,0,0,0-3-.62,7.24,7.24,0,0,0-2.94.56,4.5,4.5,0,0,0-1.95,1.52,3.72,3.72,0,0,0-.68,2.19,3.47,3.47,0,0,0,1.17,2.81,9.16,9.16,0,0,0,3.68,1.57c1,.27,1.78.5,2.3.69a3.14,3.14,0,0,1,1.16.67,1.3,1.3,0,0,1,.38.95,1.56,1.56,0,0,1-.75,1.37,4.14,4.14,0,0,1-2.25.5,3.78,3.78,0,0,1-2.07-.49,2.15,2.15,0,0,1-1-1.21,1.36,1.36,0,0,0-.28-.3.63.63,0,0,0-.38-.1h-1.93a.39.39,0,0,0-.32.14.41.41,0,0,0-.13.3,3.55,3.55,0,0,0,.75,2,4.72,4.72,0,0,0,2.06,1.51,8.38,8.38,0,0,0,3.26.57,8.62,8.62,0,0,0,3.18-.53A4.59,4.59,0,0,0,120.21,175.36Z"/><path class="cls-1" d="M45.3,187.6H40.12a.54.54,0,0,0-.38.14.56.56,0,0,0-.13.39V202a.52.52,0,0,0,.14.36.5.5,0,0,0,.37.15H45.4a6.73,6.73,0,0,0,4.69-1.41,6,6,0,0,0,1.6-4.39c0-.82,0-1.36,0-1.63s0-.84,0-1.66Q51.56,187.6,45.3,187.6Zm3.37,9a3.69,3.69,0,0,1-.82,2.61,3.49,3.49,0,0,1-2.55.79H42.6v-9.94h2.59a3.57,3.57,0,0,1,2.61.82,3.52,3.52,0,0,1,.87,2.56c0,.82,0,1.34,0,1.57S48.7,195.75,48.67,196.6Z"/><path class="cls-1" d="M58.78,187.6h-2a.52.52,0,0,0-.36.13.5.5,0,0,0-.15.38V202a.51.51,0,0,0,.51.51h2a.47.47,0,0,0,.37-.15.52.52,0,0,0,.14-.36V188.11a.54.54,0,0,0-.14-.38A.49.49,0,0,0,58.78,187.6Z"/><path class="cls-1" d="M73.36,194.82a14.07,14.07,0,0,0-3-1,19.15,19.15,0,0,1-2.1-.65,2.73,2.73,0,0,1-1.06-.67,1.35,1.35,0,0,1-.34-.95,1.46,1.46,0,0,1,.67-1.3,3.9,3.9,0,0,1,3.62,0,1.67,1.67,0,0,1,.83,1.14.63.63,0,0,0,.63.38h2a.39.39,0,0,0,.32-.14.41.41,0,0,0,.13-.3,3.48,3.48,0,0,0-.71-1.84,5,5,0,0,0-2-1.54,7,7,0,0,0-3-.62,7.32,7.32,0,0,0-3,.56,4.45,4.45,0,0,0-1.94,1.51,3.77,3.77,0,0,0-.68,2.2A3.47,3.47,0,0,0,65,194.46,9.1,9.1,0,0,0,68.63,196q1.53.41,2.31.69a3.22,3.22,0,0,1,1.16.67,1.3,1.3,0,0,1,.38,1,1.55,1.55,0,0,1-.76,1.37,4.11,4.11,0,0,1-2.24.5,3.75,3.75,0,0,1-2.07-.49,2.15,2.15,0,0,1-1-1.21,1.36,1.36,0,0,0-.28-.3.65.65,0,0,0-.38-.1H63.86a.39.39,0,0,0-.32.14.41.41,0,0,0-.13.3,3.61,3.61,0,0,0,.74,2,4.84,4.84,0,0,0,2.06,1.51,8.47,8.47,0,0,0,3.27.57,8.62,8.62,0,0,0,3.18-.53,4.59,4.59,0,0,0,2.12-1.54,3.9,3.9,0,0,0,.76-2.39,3.65,3.65,0,0,0-.54-2.06A3.91,3.91,0,0,0,73.36,194.82Z"/><path class="cls-1" d="M89.68,187.6H78.83a.54.54,0,0,0-.38.14.56.56,0,0,0-.13.39v1.59a.5.5,0,0,0,.15.38.46.46,0,0,0,.36.15h3.92V202a.51.51,0,0,0,.51.51h2a.47.47,0,0,0,.37-.15.52.52,0,0,0,.14-.36v-11.7h3.91a.52.52,0,0,0,.38-.15.5.5,0,0,0,.15-.38v-1.59a.53.53,0,0,0-.15-.39A.56.56,0,0,0,89.68,187.6Z"/><path class="cls-1" d="M102.8,196.37a4.12,4.12,0,0,0,2.08-1.52,4.36,4.36,0,0,0,.74-2.6,4.19,4.19,0,0,0-1.47-3.44,6.27,6.27,0,0,0-4.09-1.21h-5.5a.51.51,0,0,0-.37.14.56.56,0,0,0-.14.39V202a.51.51,0,0,0,.51.51h2a.53.53,0,0,0,.39-.15.49.49,0,0,0,.15-.36v-5.1H100l2.72,5a1.58,1.58,0,0,0,.34.41.8.8,0,0,0,.53.16h2a.41.41,0,0,0,.3-.13.39.39,0,0,0,.14-.32.56.56,0,0,0-.06-.23Zm-.89-2.5a2.79,2.79,0,0,1-1.91.56h-3V190h3a2.75,2.75,0,0,1,1.91.59,2.16,2.16,0,0,1,.64,1.67A2.08,2.08,0,0,1,101.91,193.87Z"/><path class="cls-1" d="M112.61,187.6h-2a.52.52,0,0,0-.36.13.5.5,0,0,0-.15.38V202a.51.51,0,0,0,.51.51h2a.47.47,0,0,0,.37-.15.52.52,0,0,0,.14-.36V188.11a.54.54,0,0,0-.14-.38A.49.49,0,0,0,112.61,187.6Z"/><path class="cls-1" d="M127.16,188a7.85,7.85,0,0,0-3.29-.65,6.38,6.38,0,0,0-4.53,1.52,5.9,5.9,0,0,0-1.72,4.24c0,.4,0,1,0,1.91s0,1.49,0,1.87a5.87,5.87,0,0,0,1.71,4.26,6.43,6.43,0,0,0,4.54,1.49,7.85,7.85,0,0,0,3.29-.64,5.28,5.28,0,0,0,2.17-1.78,4.59,4.59,0,0,0,.82-2.52.35.35,0,0,0-.12-.32.44.44,0,0,0-.33-.13h-2.06a.54.54,0,0,0-.38.12.91.91,0,0,0-.21.41,3,3,0,0,1-1.11,1.86,3.66,3.66,0,0,1-2.07.54c-2,0-3.08-1.13-3.17-3.4,0-.41,0-1,0-1.8s0-1.38,0-1.77c.09-2.26,1.14-3.39,3.17-3.39a3.63,3.63,0,0,1,2.08.54,3,3,0,0,1,1.1,1.86,1,1,0,0,0,.21.41.54.54,0,0,0,.38.12h2.06a.45.45,0,0,0,.31-.12.37.37,0,0,0,.14-.29v0a4.64,4.64,0,0,0-.82-2.53A5.18,5.18,0,0,0,127.16,188Z"/><path class="cls-1" d="M144.57,187.6H133.72a.5.5,0,0,0-.37.14.52.52,0,0,0-.14.39v1.59a.5.5,0,0,0,.15.38.49.49,0,0,0,.36.15h3.93V202a.52.52,0,0,0,.14.36.5.5,0,0,0,.37.15h2a.47.47,0,0,0,.37-.15.48.48,0,0,0,.14-.36v-11.7h3.91a.52.52,0,0,0,.38-.15.5.5,0,0,0,.15-.38v-1.59a.53.53,0,0,0-.15-.39A.56.56,0,0,0,144.57,187.6Z"/><path class="cls-1" d="M32.65,56,13.11,42.07l-.2-.1a.75.75,0,0,0-.57,0,.71.71,0,0,0-.46.4L9.75,46.68a1.39,1.39,0,0,0-.18.82,1,1,0,0,0,.44.58l11.53,8.19L13.17,55a1.21,1.21,0,0,0-1.43.66l-1.22,2.49a1.21,1.21,0,0,0,.36,1.54L17,65.56,3.48,61.45c-.54-.18-1,0-1.28.69L.07,66.49a.75.75,0,0,0,0,.59.69.69,0,0,0,.38.45.46.46,0,0,0,.21.07l23,6.83a1.38,1.38,0,0,0,1,0,1.46,1.46,0,0,0,.77-.76L27,70.31a1.35,1.35,0,0,0,.14-1,1.8,1.8,0,0,0-.39-.72l-7.6-7.79L30,62.05a1.48,1.48,0,0,0,.79-.11,1.31,1.31,0,0,0,.67-.7l1.64-3.36A1.46,1.46,0,0,0,32.65,56Z"/><path class="cls-1" d="M49.48,34.41a.94.94,0,0,0-.67-.31.9.9,0,0,0-.69.25l-8.85,8.1L36,38.9l8-7.35a.91.91,0,0,0,.32-.66,1,1,0,0,0-.26-.7l-2.27-2.48a.93.93,0,0,0-.67-.32,1,1,0,0,0-.69.26l-8,7.34-3.17-3.46,8.63-7.9a1,1,0,0,0,.33-.65A.86.86,0,0,0,38,22.3l-2.47-2.7a.91.91,0,0,0-.67-.32,1,1,0,0,0-.69.26L21.28,31.33A.89.89,0,0,0,21,32a1,1,0,0,0,.27.68L37.45,50.38a1,1,0,0,0,1.31.06l13.1-12a1,1,0,0,0,.33-.66.86.86,0,0,0-.24-.67Z"/><path class="cls-1" d="M60.07,33.15a16.07,16.07,0,0,0,6.05-1.34,16.21,16.21,0,0,0,5-3.1,9.07,9.07,0,0,0,2.64-4.13A6.89,6.89,0,0,0,73.5,20a6.87,6.87,0,0,0-2.34-3.14,6.89,6.89,0,0,0-3.73-1.12,23.8,23.8,0,0,0-5.72.62,16.8,16.8,0,0,1-4.3.41,1.87,1.87,0,0,1-1.66-1.14,1.84,1.84,0,0,1,.17-1.83,4.39,4.39,0,0,1,2-1.42A4.66,4.66,0,0,1,60.27,12a2.3,2.3,0,0,1,1.56.79,1.4,1.4,0,0,0,1.41.14L68,11a.75.75,0,0,0,.43-.44.86.86,0,0,0,0-.61A6,6,0,0,0,66,7.38a9.66,9.66,0,0,0-4.45-1.23,13,13,0,0,0-5.65,1.08,13.85,13.85,0,0,0-4.69,3,8.18,8.18,0,0,0-2.3,3.95,6.91,6.91,0,0,0,.35,4.27,6.28,6.28,0,0,0,4,4,15.39,15.39,0,0,0,7.22,0c1.53-.28,2.73-.45,3.58-.52A4.86,4.86,0,0,1,66,22a1.63,1.63,0,0,1,1,1,1.86,1.86,0,0,1-.36,2A6.25,6.25,0,0,1,64,26.67a5.5,5.5,0,0,1-2.74.49,3.73,3.73,0,0,1-1.94-.79,2.39,2.39,0,0,0-.76-.25,1.55,1.55,0,0,0-.72.14l-4.56,1.85a.78.78,0,0,0-.45.42.7.7,0,0,0,0,.6,6.35,6.35,0,0,0,2.66,2.92A9,9,0,0,0,60.07,33.15Z"/><path class="cls-1" d="M75.87,7.08a1,1,0,0,0,.7.21l6.5-.41,1.2,18.91a.85.85,0,0,0,.32.64,1,1,0,0,0,.7.22l5.13-.33a.93.93,0,0,0,.67-.3.86.86,0,0,0,.23-.68L90.12,6.43,96.62,6a1,1,0,0,0,.67-.3A.9.9,0,0,0,97.53,5L97.26.9a.88.88,0,0,0-.32-.66.93.93,0,0,0-.7-.24l-20,1.27a1,1,0,0,0-.9,1l.26,4.14A.91.91,0,0,0,75.87,7.08Z"/><path class="cls-1" d="M133.5,25.55l1.35-3.08a1,1,0,0,0-.49-1.27l-10-4.37,1.89-4.3L137,17.22a.93.93,0,0,0,.73,0,.87.87,0,0,0,.53-.5l1.47-3.35a1,1,0,0,0,0-.74,1,1,0,0,0-.52-.53l-16-7a.86.86,0,0,0-.72,0,1,1,0,0,0-.51.52l-9.65,22a.94.94,0,0,0,.47,1.22L129.09,36a1,1,0,0,0,.73,0,.88.88,0,0,0,.52-.5l1.47-3.36a.91.91,0,0,0,0-.74.87.87,0,0,0-.51-.52l-11-4.82,1.93-4.41,10,4.37a1,1,0,0,0,.74,0A.93.93,0,0,0,133.5,25.55Z"/><path class="cls-1" d="M167.37,36a.91.91,0,0,0-.28-.67L163.75,32a.85.85,0,0,0-.66-.27,1,1,0,0,0-.67.3l-9.54,9.61,3.53-15.94a1.38,1.38,0,0,0-.4-1.39l-3-2.94a.85.85,0,0,0-.67-.28.93.93,0,0,0-.66.31l-16.92,17a1,1,0,0,0,0,1.31l3.34,3.31a1,1,0,0,0,.67.3.86.86,0,0,0,.66-.28l9.18-9.24-3.16,15.52a1.34,1.34,0,0,0,.4,1.39l3,2.94a.94.94,0,0,0,.67.28,1,1,0,0,0,.67-.31l16.89-17A1,1,0,0,0,167.37,36Z"/><path class="cls-1" d="M180.42,58l-3.89-8.91a.87.87,0,0,0-.53-.5.93.93,0,0,0-.73,0l-22,9.61a.93.93,0,0,0-.48,1.22l4,9.09q4.45,10.2,13.89,6.49c.64-.26,1.51-.62,2.59-1.1s1.95-.86,2.6-1.17a9.74,9.74,0,0,0,5.59-5.91Q182.62,63,180.42,58Zm-4.78,5.75a4.8,4.8,0,0,1-2.7,2.56c-.61.33-1.44.71-2.48,1.17s-1.89.8-2.57,1a5.09,5.09,0,0,1-3.73.34,4.73,4.73,0,0,1-2.39-2.71l-1.48-3.39,13.56-5.93,1.41,3.23A5,5,0,0,1,175.64,63.75Z"/></g></g></svg>