<svg xmlns="http://www.w3.org/2000/svg" viewBox="0 0 74.95 74.95"><g id="Layer_2" data-name="Layer 2"><g id="Layer_1-2" data-name="Layer 1"><path d="M73,0H0V75H75V0ZM24.41,4h25L29.81,43.82h-5.4ZM42.57,26.88A23.93,23.93,0,0,0,53.11,43.82H34.22ZM4,4H20L4,38.81Zm16.49,8.58V43.82H6ZM4,43.8l0,0H4ZM35.5,71H4V47.78H35.5ZM71,71H39.46V47.78H71Zm0-27.17H66.27A20,20,0,0,1,46.46,26.06H71ZM71,22.1H46.42A20,20,0,0,1,66.27,4H71Z"/><path d="M15,64.28h1.85a.51.51,0,0,0,.49-.32l.51-1.38H21.6L22.11,64a.51.51,0,0,0,.49.32h1.85a.28.28,0,0,0,.21-.1.28.28,0,0,0,.09-.2.39.39,0,0,0,0-.13l-3.32-9.14a.55.55,0,0,0-.57-.42H18.62a.55.55,0,0,0-.57.42l-3.33,9.14a.45.45,0,0,0,0,.13.28.28,0,0,0,.09.2A.26.26,0,0,0,15,64.28Zm4.72-7.48L21,60.44H18.46Z"/><path d="M58.45,55.3a4.86,4.86,0,0,0-3.28-1H51.42a.33.33,0,0,0-.25.11.35.35,0,0,0-.1.26v9.26a.33.33,0,0,0,.1.25.36.36,0,0,0,.25.11h3.83c2.86,0,4.34-1.31,4.43-3.91,0-.27,0-.63,0-1.08s0-.83,0-1.1A3.76,3.76,0,0,0,58.45,55.3Zm-1.49,5a2,2,0,0,1-.46,1.37,1.79,1.79,0,0,1-1.33.43H53.75V56.43H55.1a1.94,1.94,0,0,1,1.37.44A1.9,1.9,0,0,1,57,58.22q0,.39,0,1.05C57,59.71,57,60.07,57,60.34Z"/></g></g></svg>